<?xml version="1.0" encoding="UTF-8"?>
<svg width="48px" height="48px" viewBox="0 0 48 48" version="1.1" xmlns="http://www.w3.org/2000/svg" xmlns:xlink="http://www.w3.org/1999/xlink">
    <title>Icons/content/edit-24px</title>
    <g id="Home-page-Portal---Desktop" stroke="none" stroke-width="1" fill="none" fill-rule="evenodd">
        <g id="S2---Use-case-2:-First-user" transform="translate(-288, -725)">
            <g id="Group-44" transform="translate(120, 623)">
                <g id="Group-10" transform="translate(58, 102)">
                    <g id="Icons/content/edit-24px" transform="translate(110, 0)">
                        <rect id="Size" fill="#D8D8D8" opacity="0" x="0" y="0" width="48" height="48"></rect>
                        <path d="M40,12 L38,12 L38,28 C38,29.1 37.1,30 36,30 L12,30 L12,32 C12,34.2 13.8,36 16,36 L36,36 L44,44 L44,16 C44,13.8 42.2,12 40,12 Z" id="Path" fill="#F3962F" opacity="0.5"></path>
                        <path d="M34,22 L34,8 C34,5.8 32.2,4 30,4 L8,4 C5.8,4 4,5.8 4,8 L4,34 L12,26 L30,26 C32.2,26 34,24.2 34,22 Z" id="Path" fill="#F3962F"></path>
                    </g>
                </g>
            </g>
        </g>
    </g>
</svg>