<?xml version="1.0" encoding="UTF-8"?>
<svg width="24px" height="24px" viewBox="0 0 24 24" version="1.1" xmlns="http://www.w3.org/2000/svg" xmlns:xlink="http://www.w3.org/1999/xlink">
    <title>Icons/content/edit-24px</title>
    <g id="Consumption" stroke="none" stroke-width="1" fill="none" fill-rule="evenodd">
        <g id="Program---Content-Copy-2" transform="translate(-793, -1213)">
            <g id="Buttons/Icon+text-Copy" transform="translate(777, 1201)">
                <g id="Icons/content/edit-24px" transform="translate(16, 12)">
                    <rect id="Size" fill="#D8D8D8" opacity="0" x="0" y="0" width="24" height="24"></rect>
                    <path d="M15.75,9 C16.2051316,9 16.4873684,9.84461398 16.8832895,10.0078092 C17.02,10.0641692 17.1999561,10.0581539 17.3905848,10.0364614 L17.6804605,9.99800184 C17.9701974,9.95945872 18.2473026,9.93817665 18.4018421,10.0917607 C18.7109211,10.3989287 18.3161842,11.1933287 18.4859211,11.6005323 C18.6501316,11.9940055 19.5,12.2744974 19.5,12.726815 C19.5,13.1791327 18.6501316,13.4596246 18.4859211,13.8530978 C18.3157895,14.2606936 18.7105263,15.0550937 18.4014474,15.3622617 C18.1727436,15.5895515 17.675606,15.4338636 17.26651,15.4058639 L17.2665234,20.6601042 C17.267319,20.777693 17.2069799,20.887234 17.1072287,20.9492475 C17.0074774,21.0112609 16.8826932,21.0168077 16.7778494,20.9638885 L15.9016499,20.5217136 C15.8060517,20.4744693 15.6939483,20.4744693 15.5983501,20.5217136 L14.7221506,20.9638885 C14.6173068,21.0168077 14.4925226,21.0112609 14.3927713,20.9492475 C14.2930201,20.887234 14.232681,20.777693 14.2334766,20.6601042 L14.2341236,15.4055716 C13.8247028,15.4332508 13.3270235,15.58932 13.0981579,15.3618694 C12.7890789,15.0547014 13.1838158,14.2603014 13.0140789,13.8530978 C12.8498684,13.4596246 12,13.1791327 12,12.726815 C12,12.2744974 12.8498684,11.9940055 13.0140789,11.6005323 C13.1842105,11.1929364 12.7894737,10.3985364 13.0985526,10.0913684 C13.4076316,9.78420034 14.2069737,10.1764967 14.6167105,10.0078092 C15.0114474,9.84461398 15.2948684,9 15.75,9 Z M20.75,3 C21.3022847,3 21.75,3.44771525 21.75,4 L21.75,14.75 C21.75,15.3022847 21.3022847,15.75 20.75,15.75 L19.312,15.75 L19.312,14.156 L20.125,14.15625 L20.125,4.59375 L3.875,4.59375 L3.875,14.15625 L12,14.156 L12,15.75 L3.25,15.75 C2.69771525,15.75 2.25,15.3022847 2.25,14.75 L2.25,4 C2.25,3.44771525 2.69771525,3 3.25,3 L20.75,3 Z M15.75,11.25 C14.9215729,11.25 14.25,11.9215729 14.25,12.75 C14.25,13.5784271 14.9215729,14.25 15.75,14.25 C16.5784271,14.25 17.25,13.5784271 17.25,12.75 C17.25,11.9215729 16.5784271,11.25 15.75,11.25 Z M7.275,11.4 C7.60637085,11.4 7.875,11.6686292 7.875,12 C7.875,12.3313708 7.60637085,12.6 7.275,12.6 L5.85,12.6 C5.51862915,12.6 5.25,12.3313708 5.25,12 C5.25,11.6686292 5.51862915,11.4 5.85,11.4 L7.275,11.4 Z M9.9,8.7 C10.2313708,8.7 10.5,8.96862915 10.5,9.3 C10.5,9.63137085 10.2313708,9.9 9.9,9.9 L5.85,9.9 C5.51862915,9.9 5.25,9.63137085 5.25,9.3 C5.25,8.96862915 5.51862915,8.7 5.85,8.7 L9.9,8.7 Z M12.9,6 C13.2313708,6 13.5,6.26862915 13.5,6.6 C13.5,6.93137085 13.2313708,7.2 12.9,7.2 L5.85,7.2 C5.51862915,7.2 5.25,6.93137085 5.25,6.6 C5.25,6.26862915 5.51862915,6 5.85,6 L12.9,6 Z" id="Combined-Shape" fill="#0074B6"></path>
                </g>
            </g>
        </g>
    </g>
</svg>