<?xml version="1.0" encoding="UTF-8"?>
<svg width="276px" height="128px" viewBox="0 0 276 128" version="1.1" xmlns="http://www.w3.org/2000/svg" xmlns:xlink="http://www.w3.org/1999/xlink">
    <title>Illustration/web/Browse by Competency</title>
    <defs>
        <linearGradient x1="11.3849241%" y1="50%" x2="90.2386922%" y2="50%" id="linearGradient-1">
            <stop stop-color="#2C77A6" offset="0%"></stop>
            <stop stop-color="#07446B" offset="100%"></stop>
        </linearGradient>
        <rect id="path-2" x="0" y="0" width="275.166667" height="128"></rect>
        <path d="M83.5489214,12.0063191 L78.1748523,17.4227037 L63.8440015,2.97901151 C59.9030175,-0.993003837 53.4541346,-0.993003837 49.5131507,2.97901151 L35.1822998,17.4227037 L29.8082308,12.0063191 C24.8640872,7.02324532 16.8388108,7.02324532 11.8946673,12.0063191 C6.95052372,16.9893929 6.95052372,25.0778605 11.8946673,30.0609343 L17.2687363,35.4773189 L2.93788549,49.9210111 C-1.00309849,53.8930264 -0.967271362,60.3565787 2.97371261,64.328594 L16.5880209,78.0501016 L21.9262628,72.6698262 C27.2645048,67.2895509 35.9346695,67.2895509 41.2729114,72.6698262 C46.6111534,78.0501016 46.6111534,86.7885353 41.2729114,92.1688107 L35.8988424,97.5851952 L49.5131507,111.306703 C53.4541346,115.278718 59.9030175,115.278718 63.8440015,111.306703 L77.4583098,97.5851952 L72.0842407,92.1688107 C66.7459988,86.7885353 66.7459988,78.0501016 72.0842407,72.6698262 C77.4224826,67.2895509 86.0926474,67.2895509 91.4308893,72.6698262 L96.8049584,78.0862108 L110.419267,64.3647032 C114.360251,60.3926879 114.360251,53.8930264 110.419267,49.9210111 L96.0884158,35.4773189 L101.462485,30.0609343 C106.406628,25.0778605 106.406628,16.9893929 101.462485,12.0063191 C96.5183414,7.02324532 88.4930649,7.02324532 83.5489214,12.0063191 Z" id="path-4"></path>
        <filter x="-21.6%" y="-20.6%" width="143.2%" height="142.9%" filterUnits="objectBoundingBox" id="filter-5">
            <feOffset dx="0" dy="1" in="SourceAlpha" result="shadowOffsetOuter1"></feOffset>
            <feGaussianBlur stdDeviation="8" in="shadowOffsetOuter1" result="shadowBlurOuter1"></feGaussianBlur>
            <feColorMatrix values="0 0 0 0 0.854901961   0 0 0 0 0.823529412   0 0 0 0 0.788235294  0 0 0 0.16 0" type="matrix" in="shadowBlurOuter1"></feColorMatrix>
        </filter>
    </defs>
    <g id="Illustration/web/Browse-by-Competency" stroke="none" stroke-width="1" fill="none" fill-rule="evenodd">
        <rect id="bg" fill="url(#linearGradient-1)" x="0" y="0" width="276" height="128" rx="8"></rect>
        <g id="Illustrations/Mobile/topics_bg" opacity="0.29843532" transform="translate(0.833333, 0.000000)">
            <mask id="mask-3" fill="white">
                <use xlink:href="#path-2"></use>
            </mask>
            <g id="bg"></g>
            <g id="Group-11" opacity="0.600000024" mask="url(#mask-3)">
                <g transform="translate(154.896868, -45.996366)">
                    <g id="Path" fill="none">
                        <use fill="black" fill-opacity="1" filter="url(#filter-5)" xlink:href="#path-4"></use>
                        <use fill="#E0E0E0" fill-rule="evenodd" xlink:href="#path-4"></use>
                    </g>
                    <path d="M148.772333,79.4065674 L143.355949,84.7806364 L128.912257,70.4497856 C124.940241,66.5088016 118.44058,66.5088016 114.468564,70.4497856 L100.024872,84.7806364 L94.6084877,79.4065674 C89.6254139,74.4624238 81.5369463,74.4624238 76.5538725,79.4065674 C71.5707987,84.3507109 71.5707987,92.3759874 76.5538725,97.3201309 L81.9702571,102.6942 L67.5265649,117.025051 C63.5545496,120.966035 63.5906588,127.37909 67.5626741,131.320074 L81.2841817,144.934383 L86.664457,139.596141 C92.0447324,134.257899 100.783166,134.257899 106.163441,139.596141 C111.543717,144.934383 111.543717,153.604548 106.163441,158.942789 L100.747057,164.316858 L114.468564,177.931167 C118.44058,181.872151 124.940241,181.872151 128.912257,177.931167 L142.633764,164.316858 L137.21738,158.942789 C131.837104,153.604548 131.837104,144.934383 137.21738,139.596141 C142.597655,134.257899 151.336089,134.257899 156.716364,139.596141 L162.132749,144.97021 L175.854256,131.355902 C179.826272,127.414918 179.826272,120.966035 175.854256,117.025051 L161.410564,102.6942 L166.826949,97.3201309 C171.810022,92.3759874 171.810022,84.3507109 166.826949,79.4065674 C161.843875,74.4624238 153.755407,74.4624238 148.772333,79.4065674 Z" id="Path-Copy" fill="#FBFBFB" fill-rule="evenodd" transform="translate(121.699407, 124.190476) rotate(-270.000000) translate(-121.699407, -124.190476) "></path>
                </g>
            </g>
        </g>
        <rect id="border" stroke-opacity="0.16" stroke="#000000" x="0.5" y="0.5" width="275" height="127" rx="8"></rect>
    </g>
</svg>