<?xml version="1.0" encoding="UTF-8"?>
<svg width="278px" height="128px" viewBox="0 0 278 128" version="1.1" xmlns="http://www.w3.org/2000/svg" xmlns:xlink="http://www.w3.org/1999/xlink">
    <title>Hub/Learn/Popular card - Web Copy 8</title>
    <defs>
        <rect id="path-1" x="0.333333333" y="0" width="277" height="128"></rect>
        <rect id="path-3" x="0" y="0" width="277" height="128"></rect>
    </defs>
    <g id="Learn" stroke="none" stroke-width="1" fill="none" fill-rule="evenodd">
        <g id="Hub/Learn/Popular-card---Web-Copy-8" transform="translate(2.000000, 0.000000)">
            <rect id="bg" fill="#FFFFFF" x="0" y="0" width="276" height="128" rx="8"></rect>
            <g id="Path-2">
                <g id="Group-4-Clipped" transform="translate(-1.333333, 0.000000)">
                    <mask id="mask-2" fill="white">
                        <use xlink:href="#path-1"></use>
                    </mask>
                    <g id="path-1"></g>
                    <g id="Group-4" mask="url(#mask-2)">
                        <g transform="translate(175.333333, 63.000000)" id="Group">
                            <g id="Path-11-Copy-3" transform="translate(91.500000, 60.000000) scale(-1, 1) translate(-91.500000, -60.000000) translate(61.000000, 0.000000)" fill-rule="nonzero">
                                <g id="path-3-link" fill="#000000">
                                    <path d="M0,0.0324457375 L0,96.6969109 C25.4570451,98.031813 45.7903783,105.799509 61,120 C61,88.5536778 60.9900585,57.3202028 60.9701754,26.2995753 C57.7071219,19.3130089 50.1122526,13.1000128 38.1855675,7.66058716 C26.2588824,2.22116152 13.53036,-0.321552289 0,0.0324457375 Z" id="path-3"></path>
                                </g>
                                <g id="path-3-link" fill="#E8E8E8">
                                    <path d="M0,0.0324457375 L0,96.6969109 C25.4570451,98.031813 45.7903783,105.799509 61,120 C61,88.5536778 60.9900585,57.3202028 60.9701754,26.2995753 C57.7071219,19.3130089 50.1122526,13.1000128 38.1855675,7.66058716 C26.2588824,2.22116152 13.53036,-0.321552289 0,0.0324457375 Z" id="path-3"></path>
                                </g>
                            </g>
                            <g id="Path-11-Copy-4">
                                <g id="path-5-link" fill="#000000" fill-rule="nonzero">
                                    <path d="M0,0.0324457375 L0,96.6969109 C25.4570451,98.031813 45.7903783,105.799509 61,120 C61,88.5536778 60.9900585,57.3202028 60.9701754,26.2995753 C57.7071219,19.3130089 50.1122526,13.1000128 38.1855675,7.66058716 C26.2588824,2.22116152 13.5303599,-0.321552289 0,0.0324457375 Z" id="path-5"></path>
                                </g>
                                <g id="path-5-link" fill="#FFFFFF">
                                    <path d="M0,0.0324457375 L0,96.6969109 C25.4570451,98.031813 45.7903783,105.799509 61,120 C61,88.5536778 60.9900585,57.3202028 60.9701754,26.2995753 C57.7071219,19.3130089 50.1122526,13.1000128 38.1855675,7.66058716 C26.2588824,2.22116152 13.5303599,-0.321552289 0,0.0324457375 Z" id="path-5"></path>
                                </g>
                            </g>
                        </g>
                    </g>
                </g>
                <g id="Group-4-Copy-Clipped" transform="translate(-1.000000, 0.000000)">
                    <mask id="mask-4" fill="white">
                        <use xlink:href="#path-3"></use>
                    </mask>
                    <g id="path-1"></g>
                    <g id="Group-4-Copy" mask="url(#mask-4)">
                        <g transform="translate(175.000000, -41.000000)" id="Group">
                            <g id="Path-11-Copy-3" transform="translate(91.500000, 60.000000) scale(-1, 1) translate(-91.500000, -60.000000) translate(61.000000, 0.000000)" fill-rule="nonzero">
                                <g id="path-7-link" fill="#000000">
                                    <path d="M0,0.0324457375 L0,96.6969109 C25.4570451,98.031813 45.7903783,105.799509 61,120 C61,88.5536778 60.9900585,57.3202028 60.9701754,26.2995753 C57.7071219,19.3130089 50.1122526,13.1000128 38.1855675,7.66058716 C26.2588824,2.22116152 13.53036,-0.321552289 0,0.0324457375 Z" id="path-7"></path>
                                </g>
                                <g id="path-7-link" fill="#E8E8E8">
                                    <path d="M0,0.0324457375 L0,96.6969109 C25.4570451,98.031813 45.7903783,105.799509 61,120 C61,88.5536778 60.9900585,57.3202028 60.9701754,26.2995753 C57.7071219,19.3130089 50.1122526,13.1000128 38.1855675,7.66058716 C26.2588824,2.22116152 13.53036,-0.321552289 0,0.0324457375 Z" id="path-7"></path>
                                </g>
                            </g>
                            <g id="Path-11-Copy-4">
                                <g id="path-9-link" fill="#000000" fill-rule="nonzero">
                                    <path d="M0,0.0324457375 L0,96.6969109 C25.4570451,98.031813 45.7903783,105.799509 61,120 C61,88.5536778 60.9900585,57.3202028 60.9701754,26.2995753 C57.7071219,19.3130089 50.1122526,13.1000128 38.1855675,7.66058716 C26.2588824,2.22116152 13.5303599,-0.321552289 0,0.0324457375 Z" id="path-9"></path>
                                </g>
                                <g id="path-9-link" fill="#FFFFFF">
                                    <path d="M0,0.0324457375 L0,96.6969109 C25.4570451,98.031813 45.7903783,105.799509 61,120 C61,88.5536778 60.9900585,57.3202028 60.9701754,26.2995753 C57.7071219,19.3130089 50.1122526,13.1000128 38.1855675,7.66058716 C26.2588824,2.22116152 13.5303599,-0.321552289 0,0.0324457375 Z" id="path-9"></path>
                                </g>
                            </g>
                        </g>
                    </g>
                </g>
            </g>
            <rect id="border" stroke-opacity="0.16" stroke="#000000" x="0.5" y="0.5" width="275" height="127" rx="8"></rect>
        </g>
    </g>
</svg>